<?xml version="1.0" encoding="UTF-8" standalone="no"?>
<svg
   xmlns:dc="http://purl.org/dc/elements/1.1/"
   xmlns:cc="http://creativecommons.org/ns#"
   xmlns:rdf="http://www.w3.org/1999/02/22-rdf-syntax-ns#"
   xmlns:svg="http://www.w3.org/2000/svg"
   xmlns="http://www.w3.org/2000/svg"
   xmlns:sodipodi="http://sodipodi.sourceforge.net/DTD/sodipodi-0.dtd"
   xmlns:inkscape="http://www.inkscape.org/namespaces/inkscape"
   width="100"
   height="100"
   viewBox="0 0 1024 1024"
   version="1.1"
   id="svg8"
   sodipodi:docname="icon-home.svg"
   inkscape:version="0.92.3 (2405546, 2018-03-11)">
  <defs
     id="defs12" />
  <sodipodi:namedview
     pagecolor="#ffffff"
     bordercolor="#666666"
     borderopacity="1"
     objecttolerance="10"
     gridtolerance="10"
     guidetolerance="10"
     inkscape:pageopacity="0"
     inkscape:pageshadow="2"
     inkscape:window-width="763"
     inkscape:window-height="480"
     id="namedview10"
     showgrid="false"
     inkscape:zoom="2.36"
     inkscape:cx="50"
     inkscape:cy="50"
     inkscape:window-x="0"
     inkscape:window-y="0"
     inkscape:window-maximized="0"
     inkscape:current-layer="svg8" />
  <metadata
     id="metadata2">Generated by Glyphter<rdf:RDF>
  <cc:Work
     rdf:about="">
    <dc:format>image/svg+xml</dc:format>
    <dc:type
       rdf:resource="http://purl.org/dc/dcmitype/StillImage" />
  </cc:Work>
</rdf:RDF>
</metadata>
  <path
     inkscape:connector-curvature="0"
     id="path4"
     d="m 512.24,0 c -49.28,0 -98.528,18.592 -135.744,55.808 0,0 -338.752,338.752 -338.752,338.752 -24.992,24.992 -24.992,65.504 0,90.496 24.992,24.992 65.504,24.992 90.496,0 0,0 0,346.944 0,346.944 0,105.28 86.72,192 192,192 0,0 384,0 384,0 105.28,0 192,-86.72 192,-192 0,0 0,-346.944 0,-346.944 24.992,24.992 65.504,24.992 90.496,0 24.992,-24.992 24.992,-65.504 0,-90.496 0,0 -338.752,-338.752 -338.752,-338.752 C 610.768,18.592 561.488,0 512.24,0 c 0,0 0,0 0,0 m 0,127.2 c 16.256,0 32.48,6.336 45.248,19.104 0,0 237.696,237.696 237.696,237.696 0,0 -565.888,0 -565.888,0 0,0 237.696,-237.696 237.696,-237.696 12.736,-12.768 28.992,-19.104 45.248,-19.104 0,0 0,0 0,0 m -256,320.8 c 0,0 512,0 512,0 0,0 0,384 0,384 0,36.096 -27.904,64 -64,64 0,0 -64,0 -64,0 0,0 0,-320 0,-320 0,0 -256,0 -256,0 0,0 0,320 0,320 0,0 -64,0 -64,0 -36.096,0 -64,-27.904 -64,-64 0,0 0,-384 0,-384 m 192,192 c 0,0 128,0 128,0 0,0 0,256 0,256 0,0 -128,0 -128,0 0,0 0,-256 0,-256"
     class="icon-home"
     data-unicode="E" />
</svg>
